<?xml version="1.0" encoding="utf-8"?>
<!DOCTYPE svg PUBLIC "-//W3C//DTD SVG 20010904//EN" "http://www.w3.org/TR/2001/REC-SVG-20010904/DTD/svg10.dtd">
<svg version="1.0" xmlns="http://www.w3.org/2000/svg" width="602pt" height="339pt" viewBox="0 0 602 339" style="" preserveAspectRatio="xMidYMid meet">
<g fill="#EEE0D8FE" stroke="#EEE0D8FE">
<path d="M 322.877 3.501 C 313.600 8.334 309.055 16.461 309.022 28.281 C 309.004 34.765 309.292 36.183 310.750 36.781 C 314.595 38.360 310.050 37.284 302.500 34.829 C 298.100 33.398 292.680 31.927 290.456 31.560 L 286.412 30.894 284.286 36.197 C 283.116 39.114 281.786 42.625 281.330 44.000 C 280.873 45.375 280.563 45.713 280.639 44.750 C 281.081 39.184 255.010 48.128 238.898 59.069 C 232.199 63.618 217.376 78.240 216.425 81.237 C 216.117 82.207 215.509 83.000 215.074 83.000 C 213.917 83.000 207.000 93.703 207.000 95.494 C 207.000 96.333 206.062 97.803 204.916 98.760 C 203.769 99.717 201.558 102.998 200.001 106.052 C 196.496 112.928 191.248 119.559 182.633 127.996 C 178.985 131.569 176.000 135.056 176.000 135.746 C 176.000 138.277 184.288 137.203 189.304 134.022 C 192.903 131.739 194.000 131.403 194.000 132.581 C 194.000 133.500 193.529 133.827 192.830 133.395 C 192.058 132.918 191.865 133.205 192.261 134.237 C 192.591 135.098 192.259 138.210 191.523 141.151 C 190.787 144.093 189.876 151.225 189.500 157.000 C 188.623 170.439 186.538 184.286 184.543 189.906 C 183.682 192.329 183.155 194.489 183.371 194.705 C 184.506 195.840 189.372 193.364 191.375 190.632 C 193.863 187.238 197.000 179.478 197.000 176.717 C 197.000 173.198 198.568 175.174 199.761 180.197 C 200.440 183.055 202.352 188.342 204.009 191.947 C 205.842 195.932 206.305 197.584 205.190 196.161 L 203.358 193.823 202.060 199.661 C 200.008 208.894 192.779 230.010 185.340 248.500 L 178.500 265.500 178.500 278.000 C 178.500 285.746 178.945 291.254 179.670 292.482 C 180.718 294.259 181.244 293.586 184.747 285.982 C 186.897 281.317 189.954 273.737 191.540 269.137 C 193.127 264.538 194.570 261.209 194.747 261.741 C 195.232 263.196 188.586 280.995 184.569 288.999 C 179.175 299.746 172.359 309.275 159.502 324.040 L 147.782 337.500 176.261 337.765 L 204.740 338.030 205.413 333.765 C 208.362 315.075 213.924 300.825 220.419 295.319 C 223.328 292.853 223.334 292.826 222.033 287.672 C 221.315 284.828 219.421 278.225 217.823 273.000 C 212.844 256.720 211.657 247.546 211.743 226.000 C 211.795 212.941 211.447 206.005 210.691 205.000 C 210.069 204.175 210.779 204.586 212.268 205.913 C 214.314 207.736 214.710 208.645 213.888 209.634 C 212.184 211.689 212.529 242.766 214.382 254.000 C 215.244 259.225 217.736 269.421 219.921 276.658 C 224.520 291.894 227.439 306.200 228.940 320.856 C 230.151 332.689 230.248 335.581 229.403 334.736 C 229.074 334.408 228.388 328.913 227.877 322.525 C 226.951 310.935 224.574 296.241 223.443 295.109 C 223.114 294.781 221.145 296.335 219.067 298.563 C 215.112 302.802 211.000 312.118 211.000 316.838 C 211.000 318.357 210.614 320.028 210.142 320.550 C 209.670 321.073 208.723 324.425 208.039 328.000 C 207.354 331.575 206.585 335.288 206.329 336.250 C 205.900 337.868 207.188 338.000 223.349 338.000 C 236.401 338.000 240.961 337.683 241.338 336.750 C 241.741 335.750 241.858 335.750 241.921 336.750 C 241.984 337.742 264.609 338.000 351.500 338.000 C 411.725 338.000 461.000 337.622 461.000 337.160 C 461.000 335.016 450.514 319.231 443.676 311.080 C 435.577 301.428 428.326 291.116 423.041 281.736 C 419.822 276.023 419.808 275.938 421.397 271.966 C 423.829 265.888 423.447 257.258 420.395 249.295 C 412.363 228.344 409.088 218.871 408.020 213.500 C 407.364 210.200 406.413 206.713 405.905 205.750 C 405.177 204.369 405.391 204.000 406.918 204.000 C 409.562 204.000 413.587 195.439 415.080 186.639 C 416.686 177.173 415.720 141.274 413.546 129.626 C 411.399 118.126 407.593 106.149 403.495 98.000 C 399.496 90.048 392.149 80.121 387.760 76.744 C 385.967 75.363 381.274 71.046 377.331 67.149 C 368.803 58.721 358.897 52.099 348.722 48.025 C 341.096 44.972 331.155 42.090 327.540 41.884 C 325.563 41.772 325.561 41.753 327.474 41.268 C 328.559 40.992 331.259 39.299 333.474 37.504 C 338.830 33.163 344.360 30.488 350.799 29.123 C 358.652 27.459 359.876 27.676 363.600 31.400 C 366.307 34.107 367.000 35.597 367.000 38.709 C 367.000 48.606 360.099 49.034 342.750 40.215 C 341.752 39.707 341.818 42.165 342.846 43.785 C 343.295 44.492 347.216 45.918 351.561 46.953 C 358.271 48.551 359.915 48.641 362.480 47.546 C 368.698 44.893 372.000 39.176 372.000 31.061 C 372.000 21.198 366.988 12.214 357.640 5.321 L 351.780 1.000 339.640 1.047 C 328.813 1.088 327.000 1.354 322.877 3.501 M 346.666 146.071 C 349.323 147.210 352.963 149.260 354.755 150.627 C 359.281 154.079 361.032 152.555 356.831 148.819 L 353.500 145.856 357.277 148.567 C 361.135 151.337 362.887 151.342 361.356 148.579 C 360.885 147.730 362.075 148.849 364.000 151.066 C 365.925 153.282 366.563 154.174 365.418 153.048 C 364.272 151.922 363.035 151.000 362.668 151.000 C 361.424 151.000 361.991 153.332 363.743 155.421 C 365.013 156.936 364.742 156.843 362.747 155.079 C 359.810 152.484 357.764 152.984 359.805 155.798 C 362.254 159.174 367.014 169.573 367.644 172.924 C 368.172 175.729 367.880 176.679 366.033 178.174 C 363.038 180.600 362.000 180.476 362.000 177.694 C 362.000 176.426 361.023 172.494 359.828 168.957 C 358.104 163.852 356.506 161.415 352.078 157.140 C 347.365 152.590 346.692 152.200 347.738 154.628 C 352.402 165.445 353.460 175.144 350.250 177.640 C 348.583 178.937 348.583 179.051 350.250 180.050 C 352.439 181.363 352.467 182.827 350.345 185.171 C 346.910 188.967 332.670 186.716 330.291 182.000 C 328.997 179.435 328.512 165.436 329.617 162.556 C 330.118 161.250 330.514 161.182 331.731 162.192 C 332.964 163.215 333.570 163.014 335.157 161.055 C 337.578 158.065 337.169 155.598 334.182 155.173 C 330.991 154.719 331.975 152.728 336.075 151.342 C 338.873 150.396 339.172 150.053 337.708 149.469 C 336.722 149.075 333.658 149.053 330.900 149.419 C 325.899 150.082 325.888 150.078 327.155 147.792 C 327.853 146.531 328.329 145.163 328.212 144.750 C 327.721 143.015 341.905 144.030 346.666 146.071 M 271.599 151.431 C 274.162 153.227 275.659 158.317 276.544 168.250 C 277.208 175.694 277.151 176.000 275.117 176.000 C 272.686 176.000 272.269 177.782 274.500 178.638 C 276.677 179.474 276.345 181.328 273.547 183.956 C 271.636 185.751 269.593 186.367 264.297 186.743 C 258.266 187.171 257.282 186.984 255.561 185.075 C 253.302 182.570 252.378 173.730 253.725 167.500 C 254.425 164.256 255.038 163.477 256.964 163.378 C 258.270 163.312 259.955 162.415 260.707 161.386 C 262.543 158.875 261.974 155.462 259.750 155.639 C 257.519 155.816 257.520 154.728 259.750 152.785 C 263.231 149.753 268.364 149.166 271.599 151.431 M 263.247 141.759 C 262.942 142.674 264.824 143.000 270.417 143.000 C 275.792 143.000 278.014 142.636 278.047 141.750 C 278.073 141.063 278.972 142.750 280.046 145.500 C 282.339 151.372 282.481 152.465 280.500 149.000 C 279.714 147.625 279.055 146.950 279.035 147.500 C 279.016 148.050 276.187 148.536 272.750 148.579 C 264.610 148.682 259.669 150.405 254.703 154.871 C 250.497 158.653 245.696 167.771 244.471 174.303 C 243.573 179.089 242.798 179.478 240.030 176.532 C 237.914 174.280 237.847 173.807 238.975 169.106 C 239.637 166.344 241.712 161.539 243.586 158.427 C 246.356 153.827 246.653 152.857 245.174 153.244 C 243.865 153.587 243.394 153.194 243.493 151.842 C 243.569 150.810 243.928 150.261 244.289 150.623 C 244.651 150.984 246.872 149.648 249.224 147.652 L 253.500 144.024 249.500 147.986 C 245.069 152.375 246.304 153.395 251.371 149.531 C 253.151 148.173 256.271 146.367 258.304 145.518 C 261.610 144.136 263.504 141.000 261.031 141.000 C 260.499 141.000 260.317 140.337 260.629 139.526 C 261.077 138.357 261.450 138.307 262.427 139.285 C 263.106 139.963 263.475 141.076 263.247 141.759 M 242.500 224.025 C 246.254 224.546 246.690 224.753 244.250 224.859 C 241.419 224.982 241.000 225.349 241.000 227.705 C 241.000 229.689 242.667 232.081 247.250 236.673 L 253.500 242.935 247.593 237.724 L 241.687 232.513 242.404 239.006 C 243.440 248.383 245.839 259.493 248.176 265.740 C 250.037 270.715 255.228 278.000 256.911 278.000 C 257.298 278.000 259.074 275.930 260.857 273.400 L 264.099 268.801 272.098 269.509 L 280.096 270.217 279.798 263.376 L 279.500 256.536 274.000 253.731 C 267.954 250.648 268.240 250.724 282.000 255.851 C 291.035 259.218 292.088 259.386 303.500 259.286 C 310.100 259.228 316.625 259.027 318.000 258.840 C 319.375 258.653 318.115 259.063 315.201 259.750 C 312.286 260.438 306.317 261.000 301.936 261.000 C 297.554 261.000 291.277 261.749 287.985 262.664 C 282.259 264.256 282.000 264.467 282.000 267.540 L 282.000 270.753 293.750 271.797 L 305.500 272.842 294.500 272.370 C 288.450 272.110 279.498 271.459 274.607 270.923 C 264.783 269.846 263.417 270.360 260.356 276.278 C 258.956 278.986 259.006 279.100 262.208 280.492 C 264.019 281.278 264.825 281.935 264.000 281.951 C 261.141 282.008 252.173 276.047 248.703 271.784 C 245.031 267.271 238.000 254.217 238.000 251.912 C 238.000 251.166 239.688 253.919 241.750 258.028 C 245.976 266.449 246.010 266.319 243.164 252.500 C 242.032 247.000 240.795 238.563 240.415 233.750 C 239.997 228.454 239.286 224.982 238.612 224.955 C 238.001 224.930 236.150 224.253 234.500 223.449 L 231.500 221.989 234.500 222.660 C 236.150 223.030 239.750 223.644 242.500 224.025 M 255.500 285.255 C 260.392 286.972 270.274 287.600 273.418 286.393 C 274.288 286.059 275.000 285.159 275.000 284.393 C 275.000 283.423 273.557 282.945 270.250 282.820 L 265.500 282.640 270.000 282.309 C 275.714 281.890 277.980 283.115 275.970 285.536 C 275.200 286.464 273.654 287.565 272.535 287.982 C 270.960 288.569 271.968 289.088 277.000 290.282 C 280.575 291.130 282.582 291.863 281.460 291.912 C 280.338 291.960 276.856 291.332 273.721 290.516 C 270.587 289.699 265.576 288.648 262.586 288.179 L 257.150 287.326 259.391 290.624 C 262.265 294.855 266.688 298.334 268.370 297.688 C 269.091 297.411 270.316 297.587 271.091 298.077 C 272.080 298.704 271.497 298.974 269.133 298.985 C 266.084 298.999 265.812 299.236 266.245 301.500 C 266.745 304.115 264.768 305.051 263.405 302.845 C 262.962 302.130 263.130 301.962 263.845 302.405 C 264.620 302.883 265.000 302.131 265.000 300.118 C 265.000 296.520 264.521 296.170 258.453 295.339 C 254.270 294.765 253.523 294.962 251.803 297.096 L 249.866 299.500 251.178 297.000 C 251.900 295.625 252.500 293.825 252.511 293.000 C 252.527 291.875 252.731 291.813 253.325 292.750 C 253.761 293.438 255.471 294.000 257.124 294.000 L 260.130 294.000 257.315 290.014 C 255.767 287.822 253.624 285.739 252.553 285.384 C 250.527 284.714 240.000 275.208 240.000 274.048 C 240.000 273.684 242.363 275.662 245.250 278.443 C 248.534 281.606 252.372 284.157 255.500 285.255 M 274.084 92.013 C 273.653 102.277 273.240 106.743 273.154 102.054 L 273.000 93.608 269.515 96.985 C 267.598 98.843 265.809 100.143 265.540 99.873 C 265.270 99.604 266.864 96.278 269.082 92.483 C 272.216 87.119 273.245 84.177 273.704 79.271 C 274.738 68.190 274.882 72.989 274.084 92.013 M 369.877 110.759 C 370.999 115.566 372.227 122.581 372.606 126.347 L 373.296 133.193 367.930 127.347 C 362.764 121.719 362.740 121.667 367.282 125.958 C 369.877 128.410 371.991 129.985 371.980 129.458 C 371.907 125.974 367.729 105.652 366.455 102.586 C 365.920 101.298 366.016 100.892 366.749 101.345 C 367.348 101.715 368.755 105.951 369.877 110.759 M 372.928 216.925 C 367.937 218.544 367.284 219.120 364.813 224.093 C 361.656 230.448 361.151 230.145 363.964 223.583 C 365.917 219.028 365.917 219.000 363.964 219.000 C 361.756 219.000 361.528 218.199 363.110 216.000 C 364.020 214.734 364.101 214.773 363.626 216.250 C 363.230 217.480 363.601 218.000 364.875 218.000 C 367.058 218.000 378.028 214.308 379.473 213.086 C 380.078 212.575 380.059 212.824 379.428 213.692 C 378.838 214.503 375.913 215.958 372.928 216.925 M 324.326 111.250 C 324.082 111.663 325.146 112.053 326.691 112.118 L 329.500 112.237 326.599 112.868 C 325.004 113.216 323.309 114.400 322.832 115.500 C 322.289 116.752 322.155 114.883 322.475 110.500 C 322.756 106.650 323.051 102.150 323.130 100.500 C 323.209 98.850 323.610 100.425 324.022 104.000 C 324.433 107.575 324.570 110.838 324.326 111.250 M 328.750 255.485 C 326.044 256.205 326.000 256.343 326.000 264.108 L 326.000 272.000 322.250 271.840 L 318.500 271.680 321.794 271.273 L 325.088 270.867 324.794 264.183 C 324.534 258.265 324.271 257.500 322.500 257.499 C 321.400 257.498 322.525 256.748 325.000 255.832 C 327.475 254.916 329.950 254.299 330.500 254.460 C 331.050 254.621 330.263 255.083 328.750 255.485 M 356.997 245.500 C 355.479 250.115 355.150 250.618 355.570 247.679 C 355.871 245.577 356.389 243.149 356.722 242.282 C 357.149 241.169 356.229 241.452 353.590 243.245 C 351.535 244.642 349.873 245.591 349.898 245.355 C 349.983 244.543 358.500 238.344 358.736 238.922 C 358.865 239.240 358.083 242.200 356.997 245.500 M 245.504 119.243 C 248.551 117.669 248.496 117.768 244.939 120.264 C 242.772 121.784 241.000 123.772 241.000 124.681 C 241.000 125.590 240.696 126.029 240.324 125.658 C 239.952 125.286 238.490 125.997 237.074 127.237 C 234.721 129.299 234.739 129.228 237.288 126.402 C 238.821 124.703 240.390 121.554 240.774 119.406 C 241.388 115.980 241.514 115.837 241.802 118.243 L 242.131 120.985 245.504 119.243 M 277.828 111.724 L 274.156 112.111 274.524 117.806 C 274.873 123.197 274.626 122.625 273.447 115.313 C 273.039 112.783 272.374 112.041 270.217 111.713 C 268.722 111.486 270.650 111.308 274.500 111.318 C 278.350 111.328 279.848 111.511 277.828 111.724 M 236.537 275.250 C 238.079 277.588 241.851 282.240 244.920 285.590 C 248.552 289.554 248.056 289.167 243.500 284.482 C 239.650 280.524 235.687 275.871 234.693 274.143 C 232.066 269.572 233.269 270.294 236.537 275.250 M 258.826 113.250 C 258.922 113.663 258.647 114.000 258.216 114.000 C 257.784 114.000 256.547 115.425 255.466 117.166 C 253.521 120.299 253.208 120.154 254.537 116.739 C 255.080 115.344 254.835 115.106 253.361 115.595 C 252.338 115.935 252.941 115.285 254.701 114.151 C 256.462 113.016 258.712 110.676 259.701 108.950 L 261.500 105.813 260.076 109.156 C 259.293 110.995 258.731 112.838 258.826 113.250 M 238.923 160.422 C 240.153 159.102 239.986 159.753 238.388 162.500 L 236.062 166.500 236.206 160.000 C 236.319 154.897 236.433 154.450 236.741 157.922 C 237.121 162.226 237.179 162.293 238.923 160.422 M 239.139 143.000 C 239.559 143.000 239.268 144.463 238.491 146.250 C 237.176 149.275 237.076 149.327 237.048 147.000 C 237.031 145.625 237.351 142.156 237.759 139.292 L 238.500 134.083 238.437 138.542 C 238.403 140.994 238.718 143.000 239.139 143.000 M 371.632 159.978 C 370.267 158.615 369.679 157.834 370.325 158.242 C 372.505 159.618 372.999 159.015 373.189 154.750 C 373.334 151.487 373.464 151.888 373.746 156.478 L 374.113 162.455 371.632 159.978 M 331.688 94.750 C 332.334 96.813 333.150 99.400 333.503 100.500 C 333.855 101.600 332.990 100.250 331.581 97.500 C 328.871 92.213 328.531 91.000 329.757 91.000 C 330.173 91.000 331.042 92.688 331.688 94.750 M 287.060 156.340 C 286.313 157.087 285.631 157.028 284.750 156.141 C 283.748 155.131 283.847 155.014 285.250 155.548 C 286.770 156.126 287.024 155.509 287.180 150.857 L 287.360 145.500 287.741 150.390 C 287.950 153.079 287.644 155.756 287.060 156.340 M 404.036 187.000 C 403.576 185.625 403.155 185.138 403.100 185.917 C 403.045 186.696 402.758 187.091 402.463 186.796 C 402.167 186.500 402.504 184.974 403.213 183.404 L 404.500 180.550 404.686 185.025 C 404.835 188.602 404.704 188.998 404.036 187.000 M 291.417 130.500 C 292.097 133.353 292.057 133.402 290.598 131.500 C 289.754 130.400 289.078 128.150 289.095 126.500 C 289.122 123.999 289.258 123.833 289.915 125.500 C 290.348 126.600 291.024 128.850 291.417 130.500 M 244.261 308.898 C 244.680 307.575 246.030 304.957 247.261 303.080 C 248.551 301.113 248.229 302.132 246.500 305.486 C 244.850 308.686 243.842 310.222 244.261 308.898 M 396.736 196.983 L 393.500 201.227 397.000 195.559 C 398.925 192.441 400.381 190.531 400.236 191.314 C 400.091 192.097 398.516 194.648 396.736 196.983 M 240.825 141.333 C 240.453 141.425 241.578 139.150 243.325 136.279 L 246.500 131.058 244.000 136.112 C 242.625 138.892 241.196 141.241 240.825 141.333 M 341.500 112.276 C 343.273 112.712 343.238 112.781 341.191 112.884 C 339.626 112.963 339.124 113.403 339.633 114.250 C 340.143 115.099 339.842 115.060 338.692 114.128 C 337.761 113.373 337.000 112.080 337.000 111.255 C 337.000 110.181 337.355 110.043 338.250 110.770 C 338.938 111.328 340.400 112.006 341.500 112.276 M 234.277 170.000 C 233.795 170.000 232.860 169.460 232.200 168.800 C 231.267 167.867 230.977 168.033 230.898 169.550 C 230.841 170.623 230.450 170.047 230.028 168.271 L 229.261 165.042 232.207 167.521 C 233.828 168.884 234.759 170.000 234.277 170.000 M 345.821 140.908 C 345.998 140.959 345.436 141.707 344.571 142.571 C 343.205 143.938 343.000 143.947 343.000 142.641 C 343.000 141.815 341.988 140.926 340.750 140.664 C 339.513 140.403 340.075 140.331 342.000 140.503 C 343.925 140.676 345.645 140.858 345.821 140.908 M 243.400 110.900 C 243.034 113.192 242.524 114.857 242.268 114.601 C 242.011 114.345 242.116 112.274 242.500 110.000 C 242.884 107.726 243.394 106.060 243.632 106.299 C 243.871 106.538 243.766 108.608 243.400 110.900 M 368.444 196.444 C 368.068 198.451 367.560 199.893 367.315 199.649 C 367.071 199.404 367.179 197.562 367.556 195.556 C 367.932 193.549 368.440 192.107 368.685 192.351 C 368.929 192.596 368.821 194.438 368.444 196.444 M 311.225 163.680 C 310.276 163.229 308.642 161.654 307.592 160.180 C 306.107 158.094 306.490 158.276 309.317 161.000 C 311.315 162.925 312.174 164.131 311.225 163.680 M 214.000 93.500 C 214.000 94.325 213.325 95.000 212.500 95.000 C 210.938 95.000 210.516 93.817 211.667 92.667 C 212.817 91.516 214.000 91.938 214.000 93.500 M 276.925 307.000 C 276.923 307.825 276.264 306.986 275.461 305.135 C 274.657 303.285 274.016 301.485 274.035 301.135 C 274.108 299.834 276.929 305.559 276.925 307.000 M 259.641 246.665 C 258.246 246.206 256.547 245.159 255.867 244.340 C 255.186 243.520 256.328 243.896 258.404 245.175 C 260.941 246.737 261.346 247.226 259.641 246.665 M 224.965 156.865 C 224.892 158.166 222.071 152.441 222.075 151.000 C 222.077 150.175 222.736 151.014 223.539 152.865 C 224.343 154.715 224.984 156.515 224.965 156.865 M 357.795 144.135 C 356.779 143.385 355.460 141.810 354.864 140.635 C 354.268 139.461 355.099 140.075 356.711 142.000 C 358.323 143.925 358.810 144.886 357.795 144.135 M 278.859 314.000 C 278.859 314.945 278.542 314.761 278.000 313.500 C 277.527 312.400 277.141 310.825 277.141 310.000 C 277.141 309.055 277.458 309.239 278.000 310.500 C 278.473 311.600 278.859 313.175 278.859 314.000 M 332.876 291.755 C 331.983 291.944 330.980 291.391 330.648 290.526 C 330.131 289.177 330.361 289.128 332.273 290.183 C 334.072 291.176 334.188 291.478 332.876 291.755 M 353.315 270.152 C 351.532 272.071 351.516 272.062 352.446 269.615 C 352.967 268.245 353.784 267.366 354.262 267.662 C 354.739 267.957 354.313 269.078 353.315 270.152 M 336.000 252.500 C 334.625 253.286 333.050 253.929 332.500 253.929 C 331.950 253.929 332.625 253.286 334.000 252.500 C 335.375 251.714 336.950 251.071 337.500 251.071 C 338.050 251.071 337.375 251.714 336.000 252.500 M 384.751 209.546 L 387.002 207.500 384.751 209.546 L 382.500 211.591 384.751 209.546 M 345.642 125.670 C 346.356 127.905 346.193 127.804 344.667 125.067 C 343.659 123.259 343.274 122.051 343.810 122.382 C 344.346 122.714 345.171 124.193 345.642 125.670 "/></g>
<g fill="#80808002" stroke="#80808002">
<path d="M 327.773 146.791 L 326.047 149.730 333.172 149.220 C 338.376 148.847 340.106 149.019 339.590 149.855 C 339.200 150.485 338.078 151.000 337.096 151.000 C 336.114 151.000 334.458 152.013 333.416 153.250 C 332.374 154.488 331.913 155.178 332.392 154.785 C 333.795 153.634 337.000 155.895 337.000 158.035 C 337.000 160.945 333.214 164.423 331.550 163.041 C 329.618 161.438 328.997 163.839 329.017 172.832 L 329.034 180.500 331.115 177.250 C 333.468 173.576 335.569 173.067 336.484 175.949 C 337.728 179.870 345.000 179.724 345.000 175.778 C 345.000 173.876 345.156 173.826 346.750 175.212 C 347.713 176.049 349.288 176.719 350.250 176.701 C 351.653 176.673 352.000 175.772 352.000 172.149 C 352.000 166.230 349.278 156.675 346.848 154.067 C 344.703 151.764 345.418 151.444 348.596 153.285 C 350.982 154.668 356.168 160.473 357.804 163.591 C 359.815 167.426 361.971 174.467 361.985 177.250 C 362.003 180.473 362.936 180.682 366.049 178.162 C 368.186 176.431 368.248 176.043 367.114 171.539 C 365.990 167.074 362.574 159.751 359.763 155.777 C 358.756 154.353 358.888 153.794 360.522 152.555 C 361.610 151.731 363.164 151.294 363.976 151.584 C 364.789 151.874 364.339 150.995 362.976 149.631 C 361.614 148.266 360.834 147.679 361.242 148.325 C 362.455 150.246 362.106 151.255 360.448 150.618 C 359.594 150.291 359.152 150.437 359.464 150.942 C 360.847 153.179 357.605 152.936 354.503 150.570 C 349.252 146.565 343.132 144.435 336.000 144.130 C 329.742 143.862 329.436 143.961 327.773 146.791 M 342.288 165.750 C 343.145 167.510 343.401 170.023 342.999 172.731 C 342.273 177.622 341.675 178.473 339.543 177.655 C 337.611 176.913 337.133 171.162 338.513 165.250 C 339.219 162.223 340.663 162.415 342.288 165.750 "/></g>
<g fill="#80808002" stroke="#80808002">
<path d="M 356.649 4.450 C 366.344 10.979 372.000 20.842 372.000 31.222 C 372.000 37.825 368.844 44.512 364.722 46.644 C 361.242 48.443 354.000 49.236 354.000 47.817 C 354.000 47.303 353.568 47.149 353.041 47.475 C 352.513 47.801 351.276 47.630 350.291 47.094 C 349.306 46.559 347.292 45.868 345.817 45.558 C 344.298 45.240 342.848 44.095 342.475 42.922 C 341.526 39.930 342.546 39.480 345.719 41.494 C 347.248 42.465 347.938 42.661 347.250 41.930 C 346.563 41.198 346.000 38.440 346.000 35.800 C 346.000 33.115 345.537 31.000 344.950 31.000 C 343.115 31.000 337.657 34.150 332.717 38.059 L 327.934 41.845 333.717 43.025 C 340.944 44.500 354.728 50.106 362.089 54.565 C 368.321 58.339 388.973 77.084 395.196 84.615 C 403.215 94.319 410.111 111.315 413.671 130.148 C 415.057 137.483 415.445 144.891 415.469 164.500 C 415.498 188.218 415.383 189.788 413.229 195.115 C 411.979 198.203 409.935 201.803 408.685 203.115 L 406.413 205.500 408.121 213.500 C 409.789 221.316 414.124 233.951 419.614 247.000 C 421.121 250.580 422.674 256.644 423.072 260.500 L 423.794 267.500 423.572 260.000 C 423.360 252.819 422.409 249.412 417.570 238.500 C 414.046 230.554 412.634 226.537 410.540 218.500 C 407.733 207.726 407.718 206.236 410.385 202.740 C 413.735 198.348 414.965 194.902 416.465 185.711 C 418.175 175.228 418.361 161.232 416.978 147.144 C 413.939 116.195 406.293 94.528 393.570 80.814 C 382.194 68.551 363.162 52.499 358.000 50.814 C 357.168 50.542 358.069 50.028 360.026 49.659 C 365.389 48.647 370.569 43.813 372.490 38.031 C 375.150 30.023 372.895 20.502 366.169 11.337 C 363.054 7.092 355.194 1.000 352.833 1.000 C 352.115 1.000 353.832 2.552 356.649 4.450 "/></g>
<g fill="#80808002" stroke="#80808002">
<path d="M 262.370 151.401 C 258.363 153.195 257.491 154.634 260.011 155.293 C 261.310 155.632 262.000 156.658 262.000 158.251 C 262.000 161.181 258.678 164.474 256.547 163.657 C 254.840 163.001 253.372 166.921 254.361 169.498 C 254.678 170.324 254.439 171.000 253.830 171.000 C 252.279 171.000 253.428 182.665 255.159 184.489 C 255.896 185.266 256.166 185.362 255.758 184.701 C 254.360 182.438 255.001 179.111 257.363 176.365 L 259.725 173.618 260.898 175.809 C 262.864 179.482 263.515 178.302 263.173 171.689 C 262.915 166.709 263.202 165.077 264.531 163.974 C 265.997 162.757 266.397 162.823 267.608 164.479 C 269.252 166.727 269.415 171.777 267.968 175.584 C 267.062 177.967 267.123 178.143 268.468 177.026 C 269.311 176.327 270.000 175.135 270.000 174.378 C 270.000 172.626 270.419 172.648 274.188 174.597 L 277.278 176.195 276.581 168.847 C 275.768 160.276 274.549 155.121 272.770 152.733 C 271.004 150.361 266.097 149.733 262.370 151.401 "/></g>
<g fill="#80808002" stroke="#80808002">
<path d="M 323.000 2.000 C 323.000 2.550 322.343 3.000 321.540 3.000 C 319.374 3.000 312.470 10.159 310.036 14.929 C 308.462 18.014 307.866 21.164 307.740 27.049 C 307.647 31.422 307.509 35.000 307.435 35.000 C 307.193 35.000 300.550 32.842 299.000 32.261 C 296.978 31.502 295.322 31.167 289.910 30.419 L 285.320 29.785 283.044 35.392 C 281.792 38.477 280.257 41.034 279.634 41.077 C 278.398 41.160 277.744 41.295 270.898 42.878 C 265.006 44.240 251.898 49.766 243.753 54.321 C 234.995 59.219 225.310 67.671 217.194 77.500 C 213.158 82.388 202.073 99.263 196.083 109.637 C 193.126 114.758 188.745 120.130 182.833 125.882 C 177.975 130.609 174.000 135.028 174.000 135.703 C 174.000 139.195 181.863 139.991 186.774 136.996 C 190.863 134.503 191.363 134.504 190.710 137.000 C 190.079 139.413 191.521 139.690 192.427 137.330 C 192.779 136.411 192.503 135.311 191.812 134.884 C 190.873 134.303 190.991 133.941 192.278 133.447 C 193.225 133.083 194.000 132.394 194.000 131.915 C 194.000 131.436 191.887 132.384 189.304 134.022 C 184.259 137.221 176.000 138.277 176.000 135.723 C 176.000 135.021 179.194 131.308 183.098 127.473 C 191.268 119.447 196.675 112.526 200.294 105.459 C 201.691 102.731 203.771 99.717 204.917 98.760 C 206.063 97.803 207.000 96.309 207.000 95.440 C 207.000 93.959 211.695 86.341 214.666 83.000 C 215.399 82.175 218.348 78.616 221.219 75.091 C 229.021 65.511 238.043 58.622 251.500 51.967 C 263.434 46.065 272.650 43.000 278.465 43.000 C 281.264 43.000 281.700 42.512 283.855 36.954 L 286.199 30.907 290.850 31.602 C 293.407 31.983 298.425 33.307 302.000 34.543 C 313.472 38.509 312.727 38.297 310.750 37.026 C 309.329 36.112 309.004 34.454 309.022 28.200 C 309.055 16.467 313.625 8.320 322.877 3.501 C 326.400 1.666 326.965 1.082 325.250 1.047 C 324.013 1.021 323.000 1.450 323.000 2.000 "/></g>
<g fill="#80808002" stroke="#80808002">
<path d="M 277.908 141.681 C 277.432 142.999 265.107 143.826 263.250 142.664 C 262.539 142.219 262.000 142.348 262.000 142.962 C 262.000 143.557 260.763 144.576 259.250 145.228 C 249.714 149.338 243.750 156.110 239.867 167.238 L 237.546 173.888 239.960 176.457 C 241.287 177.870 242.668 178.683 243.029 178.263 C 243.389 177.843 244.493 174.414 245.482 170.643 C 247.064 164.612 250.901 157.973 255.432 153.428 C 257.801 151.052 266.719 148.517 272.738 148.509 C 278.381 148.501 278.919 148.321 278.381 146.625 C 277.992 145.400 278.170 144.987 278.893 145.434 C 280.150 146.210 280.205 145.384 279.088 142.526 C 278.664 141.440 278.133 141.060 277.908 141.681 "/></g>
<g fill="#EEE0D8FE" stroke="#EEE0D8FE">
<path d="M 350.141 30.187 C 345.957 31.122 345.807 31.283 346.391 34.205 C 346.726 35.880 347.000 38.283 347.000 39.545 C 347.000 41.406 347.897 42.122 351.750 43.333 C 362.870 46.831 365.500 45.906 365.500 38.494 C 365.500 34.620 365.023 33.417 362.694 31.413 C 359.708 28.845 357.236 28.603 350.141 30.187 "/></g>
<g fill="#80808002" stroke="#80808002">
<path d="M 198.558 208.107 C 198.289 208.873 196.480 214.309 194.537 220.188 C 192.595 226.066 188.149 237.991 184.658 246.688 C 176.095 268.021 174.456 279.027 177.939 291.822 C 179.059 295.934 178.957 296.396 175.841 301.322 C 174.039 304.170 172.326 306.725 172.033 307.000 C 171.740 307.275 169.476 309.975 167.003 313.000 C 161.207 320.088 160.001 321.479 154.437 327.500 C 148.887 333.505 145.253 338.424 146.763 337.889 C 148.737 337.189 171.020 310.689 176.483 302.544 C 181.217 295.486 181.637 294.455 180.200 293.404 C 178.941 292.484 178.487 289.924 178.167 281.947 C 177.656 269.224 178.647 264.661 185.552 247.964 C 191.835 232.771 200.360 208.026 199.580 207.247 C 199.287 206.953 198.827 207.341 198.558 208.107 "/></g>
<g fill="#F8C8C4FE" stroke="#F8C8C4FE">
<path d="M 269.451 175.250 C 268.887 176.488 267.810 177.364 267.055 177.197 C 266.301 177.031 265.348 177.438 264.937 178.102 C 264.410 178.954 263.457 178.518 261.697 176.618 L 259.203 173.927 257.101 176.598 C 254.930 179.359 254.239 184.000 256.000 184.000 C 256.550 184.000 257.036 184.788 257.079 185.750 C 257.126 186.782 257.364 186.990 257.660 186.258 C 258.017 185.374 258.694 185.301 260.008 186.004 C 261.024 186.548 262.450 186.780 263.178 186.520 C 263.905 186.260 266.300 185.843 268.500 185.595 C 270.700 185.346 272.183 185.110 271.795 185.071 C 271.408 185.032 272.308 183.783 273.795 182.295 C 275.283 180.808 276.131 179.795 275.680 180.045 C 275.228 180.295 274.369 179.624 273.770 178.553 C 272.959 177.104 272.990 176.503 273.893 176.202 C 274.710 175.930 274.518 175.352 273.303 174.431 C 270.880 172.594 270.635 172.646 269.451 175.250 "/></g>
<g fill="#F8C8C4FE" stroke="#F8C8C4FE">
<path d="M 331.689 176.551 C 329.432 179.651 330.134 182.057 333.955 184.314 C 337.911 186.651 347.232 186.911 349.397 184.745 C 351.221 182.922 351.541 180.000 349.917 180.000 C 349.321 180.000 349.023 179.438 349.254 178.750 C 349.640 177.604 347.365 175.107 345.867 175.032 C 345.518 175.014 344.990 175.931 344.692 177.069 C 343.918 180.029 337.907 179.427 336.513 176.250 C 335.247 173.365 333.949 173.446 331.689 176.551 "/></g>
<g fill="#80808002" stroke="#80808002">
<path d="M 189.346 141.750 C 188.962 149.932 186.807 173.696 186.014 178.500 C 185.470 181.800 184.119 186.969 183.012 189.986 C 181.905 193.003 181.000 196.217 181.000 197.129 C 181.000 198.843 183.349 200.318 184.402 199.264 C 185.429 198.237 185.056 196.988 183.800 197.250 C 183.141 197.388 183.703 196.825 185.050 196.000 C 187.448 194.532 187.453 194.507 185.250 194.813 C 182.594 195.182 182.608 195.263 184.408 189.785 C 186.771 182.592 187.858 175.940 188.961 161.924 C 189.542 154.541 190.266 146.588 190.570 144.250 C 190.874 141.913 190.741 140.000 190.276 140.000 C 189.810 140.000 189.392 140.788 189.346 141.750 "/></g>
<g fill="#80808002" stroke="#80808002">
<path d="M 279.856 259.720 L 280.213 264.140 284.264 263.455 C 289.824 262.516 294.939 260.293 293.000 259.659 C 292.175 259.389 288.800 258.297 285.500 257.234 L 279.500 255.299 279.856 259.720 "/></g>
<g fill="#80808002" stroke="#80808002">
<path d="M 197.000 176.823 C 197.000 180.178 193.334 189.010 190.793 191.776 L 188.500 194.271 190.738 193.107 C 192.778 192.045 197.000 184.594 197.000 182.055 C 197.000 179.215 198.693 181.608 200.323 186.750 C 201.982 191.985 202.019 193.105 200.743 199.250 C 199.972 202.963 199.652 206.000 200.034 206.000 C 200.415 206.000 201.298 203.310 201.995 200.022 C 202.766 196.392 203.671 194.297 204.302 194.687 C 204.983 195.107 205.051 194.670 204.501 193.414 C 204.039 192.361 202.437 187.987 200.941 183.693 C 197.981 175.201 197.000 173.491 197.000 176.823 "/></g>
<g fill="#EEE0D8FE" stroke="#EEE0D8FE">
<path d="M 264.035 164.934 C 262.350 168.083 262.729 175.959 264.601 176.677 C 266.787 177.516 267.966 175.305 267.985 170.332 C 268.010 163.416 266.184 160.920 264.035 164.934 "/></g>
<g fill="#80808002" stroke="#80808002">
<path d="M 269.619 91.786 C 267.485 95.479 265.791 98.830 265.854 99.233 C 265.918 99.636 267.528 98.597 269.433 96.924 L 272.897 93.883 273.278 99.692 C 273.488 102.886 273.624 100.904 273.580 95.286 L 273.500 85.072 269.619 91.786 "/></g>
<g fill="#EEE0D8FE" stroke="#EEE0D8FE">
<path d="M 338.630 165.250 C 337.535 169.336 337.963 175.724 339.411 176.926 C 341.270 178.469 341.938 177.229 342.137 171.866 C 342.314 167.118 341.344 163.000 340.049 163.000 C 339.600 163.000 338.962 164.013 338.630 165.250 "/></g>
<g fill="#F8C8C4FE" stroke="#F8C8C4FE">
<path d="M 280.000 267.580 L 280.000 270.278 273.750 269.741 C 270.313 269.445 268.400 269.546 269.500 269.963 C 270.600 270.381 273.750 270.933 276.500 271.189 C 281.382 271.645 281.505 271.590 281.707 268.861 C 281.821 267.323 281.484 265.799 280.957 265.474 C 280.431 265.148 280.000 266.096 280.000 267.580 "/></g>
<g fill="#80808002" stroke="#80808002">
<path d="M 322.155 112.500 L 322.152 117.500 323.500 114.000 C 325.102 109.840 325.471 106.708 324.106 108.863 C 323.377 110.014 323.158 110.014 322.700 108.863 C 322.402 108.113 322.157 109.750 322.155 112.500 "/></g>
<g fill="#80808002" stroke="#80808002">
<path d="M 450.657 319.798 C 452.622 322.384 454.657 324.660 455.180 324.855 C 456.538 325.362 449.748 316.261 448.293 315.624 C 447.629 315.334 448.693 317.212 450.657 319.798 "/></g>
<g fill="#80808002" stroke="#80808002">
<path d="M 219.946 296.748 C 216.673 300.307 216.659 300.352 219.669 297.639 C 221.412 296.067 223.324 295.082 223.919 295.450 C 224.517 295.820 225.000 295.422 225.000 294.559 C 225.000 292.119 223.674 292.694 219.946 296.748 "/></g>
<g fill="#80808002" stroke="#80808002">
<path d="M 457.220 329.992 C 458.474 332.188 459.868 333.988 460.318 333.992 C 460.768 333.997 460.206 332.693 459.068 331.096 C 457.931 329.498 457.000 327.698 457.000 327.096 C 457.000 326.493 456.537 326.000 455.970 326.000 C 455.404 326.000 455.966 327.797 457.220 329.992 "/></g>
<g fill="#80808002" stroke="#80808002">
<path d="M 440.690 307.502 L 444.500 311.988 442.000 308.026 C 440.625 305.848 438.910 303.829 438.190 303.541 C 437.469 303.253 438.594 305.035 440.690 307.502 "/></g>
<g fill="#80808002" stroke="#80808002">
<path d="M 248.272 271.154 C 249.419 272.706 250.519 273.814 250.716 273.617 C 251.491 272.843 248.753 268.333 247.509 268.333 C 246.593 268.333 246.828 269.200 248.272 271.154 "/></g>
<g fill="#F8C8C4FE" stroke="#F8C8C4FE">
<path d="M 242.613 250.031 C 242.972 251.939 243.663 253.936 244.151 254.469 C 244.672 255.038 244.769 254.006 244.387 251.969 C 244.028 250.061 243.337 248.064 242.849 247.531 C 242.328 246.962 242.231 247.994 242.613 250.031 "/></g>
<g fill="#80808002" stroke="#80808002">
<path d="M 237.051 145.000 C 237.070 148.281 237.147 148.363 238.285 146.316 C 238.953 145.114 239.325 144.140 239.112 144.151 C 238.898 144.162 238.343 143.570 237.877 142.835 C 237.323 141.962 237.038 142.710 237.051 145.000 "/></g>
<g fill="#80808002" stroke="#80808002">
<path d="M 239.856 123.604 C 238.401 125.197 237.702 126.190 238.301 125.812 C 238.900 125.433 239.665 125.293 239.999 125.499 C 240.334 125.706 241.033 124.713 241.554 123.291 L 242.500 120.707 239.856 123.604 "/></g>
<g fill="#80808002" stroke="#80808002">
<path d="M 337.000 111.378 C 337.000 112.565 337.871 112.969 340.250 112.884 C 342.384 112.808 342.813 112.599 341.500 112.276 C 340.400 112.006 338.938 111.328 338.250 110.770 C 337.347 110.037 337.000 110.205 337.000 111.378 "/></g>
<g fill="#F8C8C4FE" stroke="#F8C8C4FE">
<path d="M 241.086 240.000 C 241.055 241.375 241.467 243.175 242.000 244.000 C 242.800 245.238 242.960 245.151 242.914 243.500 C 242.884 242.400 242.473 240.600 242.000 239.500 C 241.213 237.668 241.136 237.710 241.086 240.000 "/></g>
<g fill="#80808002" stroke="#80808002">
<path d="M 420.727 273.609 C 419.856 275.988 420.695 279.000 422.229 279.000 C 422.859 279.000 422.814 278.480 422.111 277.633 C 421.487 276.882 421.094 275.194 421.238 273.883 C 421.481 271.673 421.444 271.653 420.727 273.609 "/></g>
<g fill="#80808002" stroke="#80808002">
<path d="M 236.070 161.405 C 236.001 164.267 236.028 164.282 237.935 162.405 C 238.999 161.357 239.339 160.827 238.689 161.226 C 238.005 161.646 237.221 161.226 236.825 160.226 C 236.331 158.980 236.121 159.307 236.070 161.405 "/></g>
<g fill="#80808002" stroke="#80808002">
<path d="M 371.911 127.794 C 371.593 129.606 371.738 131.338 372.233 131.644 C 372.728 131.950 372.988 130.468 372.811 128.350 L 372.489 124.500 371.911 127.794 "/></g>
<g fill="#80808002" stroke="#80808002">
<path d="M 289.070 126.191 C 289.032 127.671 289.450 129.160 290.000 129.500 C 291.194 130.238 291.194 128.278 290.000 125.500 C 289.233 123.714 289.133 123.788 289.070 126.191 "/></g>
<g fill="#80808002" stroke="#80808002">
<path d="M 264.713 298.009 C 265.019 299.183 265.821 299.598 267.121 299.258 C 268.932 298.785 268.899 298.660 266.661 297.499 C 264.527 296.392 264.305 296.450 264.713 298.009 "/></g>
<g fill="#80808002" stroke="#80808002">
<path d="M 252.637 294.504 C 252.304 295.372 253.064 295.523 255.337 295.043 L 258.500 294.373 255.800 293.835 C 254.166 293.509 252.917 293.773 252.637 294.504 "/></g>
<g fill="#80808002" stroke="#80808002">
<path d="M 362.537 218.060 C 363.224 219.171 366.949 219.892 367.489 219.018 C 367.759 218.581 366.658 218.030 365.043 217.793 C 363.427 217.556 362.300 217.676 362.537 218.060 "/></g>
<g fill="#80808002" stroke="#80808002">
<path d="M 229.973 167.649 C 230.444 169.217 230.867 169.938 230.914 169.250 C 230.961 168.563 231.468 168.113 232.040 168.250 C 232.613 168.388 232.189 167.667 231.100 166.649 C 229.149 164.826 229.132 164.841 229.973 167.649 "/></g>
<g fill="#80808002" stroke="#80808002">
<path d="M 243.705 151.674 C 244.331 153.304 247.097 153.452 246.750 151.838 C 246.613 151.198 245.757 150.602 244.848 150.512 C 243.851 150.413 243.398 150.874 243.705 151.674 "/></g>
<g fill="#80808002" stroke="#80808002">
<path d="M 257.505 112.250 C 257.110 113.213 256.084 114.000 255.226 114.000 C 254.369 114.000 253.933 114.266 254.258 114.591 C 255.447 115.781 258.808 113.904 258.518 112.212 C 258.244 110.616 258.176 110.619 257.505 112.250 "/></g>
<g fill="#80808002" stroke="#80808002">
<path d="M 260.000 294.286 C 260.000 295.238 260.762 296.000 261.714 296.000 C 263.333 296.000 263.333 295.905 261.714 294.286 C 260.095 292.667 260.000 292.667 260.000 294.286 "/></g>
<g fill="#80808002" stroke="#80808002">
<path d="M 267.500 288.000 C 267.160 288.550 267.557 289.000 268.382 289.000 C 269.207 289.000 270.160 288.550 270.500 288.000 C 270.840 287.450 270.443 287.000 269.618 287.000 C 268.793 287.000 267.840 287.450 267.500 288.000 "/></g>
<g fill="#80808002" stroke="#80808002">
<path d="M 248.000 289.000 L 251.000 292.000 248.000 289.000 L 245.000 286.000 248.000 289.000 "/></g>
<g fill="#80808002" stroke="#80808002">
<path d="M 255.008 286.510 C 255.634 287.264 256.884 287.598 257.785 287.252 C 259.045 286.769 258.781 286.452 256.647 285.881 C 254.361 285.269 254.071 285.381 255.008 286.510 "/></g>
<g fill="#80808002" stroke="#80808002">
<path d="M 211.550 206.387 C 212.572 207.974 213.553 208.841 213.729 208.314 C 213.905 207.786 213.068 206.487 211.870 205.427 L 209.690 203.500 211.550 206.387 "/></g>
<g fill="#80808002" stroke="#80808002">
<path d="M 403.837 182.749 C 403.480 183.986 403.630 185.271 404.171 185.605 C 404.752 185.965 405.017 185.046 404.820 183.356 C 404.511 180.710 404.439 180.666 403.837 182.749 "/></g>
<g fill="#80808002" stroke="#80808002">
<path d="M 329.000 92.500 C 329.000 93.325 329.450 94.000 330.000 94.000 C 330.550 94.000 331.000 93.325 331.000 92.500 C 331.000 91.675 330.550 91.000 330.000 91.000 C 329.450 91.000 329.000 91.675 329.000 92.500 "/></g>
</svg>
